<svg width="98" height="42" viewBox="0 0 98 42" fill="none" xmlns="http://www.w3.org/2000/svg">
<rect x="0.5" width="97" height="42" rx="21" fill="#A3A3A3" fill-opacity="0.15"/>
<path d="M22.5 22C23.05 22 23.5 21.55 23.5 21C23.5 20.45 23.05 20 22.5 20C21.95 20 21.5 20.45 21.5 21C21.5 21.55 21.95 22 22.5 22ZM22.5 26C23.05 26 23.5 25.55 23.5 25C23.5 24.45 23.05 24 22.5 24C21.95 24 21.5 24.45 21.5 25C21.5 25.55 21.95 26 22.5 26ZM22.5 18C23.05 18 23.5 17.55 23.5 17C23.5 16.45 23.05 16 22.5 16C21.95 16 21.5 16.45 21.5 17C21.5 17.55 21.95 18 22.5 18ZM26.5 22H38.5C39.05 22 39.5 21.55 39.5 21C39.5 20.45 39.05 20 38.5 20H26.5C25.95 20 25.5 20.45 25.5 21C25.5 21.55 25.95 22 26.5 22ZM26.5 26H38.5C39.05 26 39.5 25.55 39.5 25C39.5 24.45 39.05 24 38.5 24H26.5C25.95 24 25.5 24.45 25.5 25C25.5 25.55 25.95 26 26.5 26ZM25.5 17C25.5 17.55 25.95 18 26.5 18H38.5C39.05 18 39.5 17.55 39.5 17C39.5 16.45 39.05 16 38.5 16H26.5C25.95 16 25.5 16.45 25.5 17ZM22.5 22C23.05 22 23.5 21.55 23.5 21C23.5 20.45 23.05 20 22.5 20C21.95 20 21.5 20.45 21.5 21C21.5 21.55 21.95 22 22.5 22ZM22.5 26C23.05 26 23.5 25.55 23.5 25C23.5 24.45 23.05 24 22.5 24C21.95 24 21.5 24.45 21.5 25C21.5 25.55 21.95 26 22.5 26ZM22.5 18C23.05 18 23.5 17.55 23.5 17C23.5 16.45 23.05 16 22.5 16C21.95 16 21.5 16.45 21.5 17C21.5 17.55 21.95 18 22.5 18ZM26.5 22H38.5C39.05 22 39.5 21.55 39.5 21C39.5 20.45 39.05 20 38.5 20H26.5C25.95 20 25.5 20.45 25.5 21C25.5 21.55 25.95 22 26.5 22ZM26.5 26H38.5C39.05 26 39.5 25.55 39.5 25C39.5 24.45 39.05 24 38.5 24H26.5C25.95 24 25.5 24.45 25.5 25C25.5 25.55 25.95 26 26.5 26ZM25.5 17C25.5 17.55 25.95 18 26.5 18H38.5C39.05 18 39.5 17.55 39.5 17C39.5 16.45 39.05 16 38.5 16H26.5C25.95 16 25.5 16.45 25.5 17Z" fill="#C3C3C3"/>
<path d="M60.7188 24.7734V26H55.0312V24.7734H60.7188ZM55.3281 14.625V26H53.8203V14.625H55.3281ZM63.7969 17.5469V26H62.3438V17.5469H63.7969ZM62.2344 15.3047C62.2344 15.0703 62.3047 14.8724 62.4453 14.7109C62.5911 14.5495 62.8047 14.4688 63.0859 14.4688C63.362 14.4688 63.5729 14.5495 63.7188 14.7109C63.8698 14.8724 63.9453 15.0703 63.9453 15.3047C63.9453 15.5286 63.8698 15.7214 63.7188 15.8828C63.5729 16.0391 63.362 16.1172 63.0859 16.1172C62.8047 16.1172 62.5911 16.0391 62.4453 15.8828C62.3047 15.7214 62.2344 15.5286 62.2344 15.3047ZM71.0391 23.7578C71.0391 23.5495 70.9922 23.3568 70.8984 23.1797C70.8099 22.9974 70.625 22.8333 70.3438 22.6875C70.0677 22.5365 69.651 22.4062 69.0938 22.2969C68.625 22.1979 68.2005 22.0807 67.8203 21.9453C67.4453 21.8099 67.125 21.6458 66.8594 21.4531C66.599 21.2604 66.3984 21.0339 66.2578 20.7734C66.1172 20.513 66.0469 20.2083 66.0469 19.8594C66.0469 19.526 66.1198 19.2109 66.2656 18.9141C66.4167 18.6172 66.6276 18.3542 66.8984 18.125C67.1745 17.8958 67.5052 17.7161 67.8906 17.5859C68.276 17.4557 68.7057 17.3906 69.1797 17.3906C69.8568 17.3906 70.4349 17.5104 70.9141 17.75C71.3932 17.9896 71.7604 18.3099 72.0156 18.7109C72.2708 19.1068 72.3984 19.5469 72.3984 20.0312H70.9531C70.9531 19.7969 70.8828 19.5703 70.7422 19.3516C70.6068 19.1276 70.4062 18.9427 70.1406 18.7969C69.8802 18.651 69.5599 18.5781 69.1797 18.5781C68.7786 18.5781 68.4531 18.6406 68.2031 18.7656C67.9583 18.8854 67.7786 19.0391 67.6641 19.2266C67.5547 19.4141 67.5 19.612 67.5 19.8203C67.5 19.9766 67.526 20.1172 67.5781 20.2422C67.6354 20.362 67.7344 20.474 67.875 20.5781C68.0156 20.6771 68.2135 20.7708 68.4688 20.8594C68.724 20.9479 69.0495 21.0365 69.4453 21.125C70.138 21.2812 70.7083 21.4688 71.1562 21.6875C71.6042 21.9062 71.9375 22.1745 72.1562 22.4922C72.375 22.8099 72.4844 23.1953 72.4844 23.6484C72.4844 24.0182 72.4062 24.3568 72.25 24.6641C72.099 24.9714 71.8776 25.237 71.5859 25.4609C71.2995 25.6797 70.9557 25.8516 70.5547 25.9766C70.1589 26.0964 69.7135 26.1562 69.2188 26.1562C68.474 26.1562 67.8438 26.0234 67.3281 25.7578C66.8125 25.4922 66.4219 25.1484 66.1562 24.7266C65.8906 24.3047 65.7578 23.8594 65.7578 23.3906H67.2109C67.2318 23.7865 67.3464 24.1016 67.5547 24.3359C67.763 24.5651 68.0182 24.7292 68.3203 24.8281C68.6224 24.9219 68.9219 24.9688 69.2188 24.9688C69.6146 24.9688 69.9453 24.9167 70.2109 24.8125C70.4818 24.7083 70.6875 24.5651 70.8281 24.3828C70.9688 24.2005 71.0391 23.9922 71.0391 23.7578ZM77.9219 17.5469V18.6562H73.3516V17.5469H77.9219ZM74.8984 15.4922H76.3438V23.9062C76.3438 24.1927 76.388 24.4089 76.4766 24.5547C76.5651 24.7005 76.6797 24.7969 76.8203 24.8438C76.9609 24.8906 77.112 24.9141 77.2734 24.9141C77.3932 24.9141 77.5182 24.9036 77.6484 24.8828C77.7839 24.8568 77.8854 24.8359 77.9531 24.8203L77.9609 26C77.8464 26.0365 77.6953 26.0703 77.5078 26.1016C77.3255 26.138 77.1042 26.1562 76.8438 26.1562C76.4896 26.1562 76.1641 26.0859 75.8672 25.9453C75.5703 25.8047 75.3333 25.5703 75.1562 25.2422C74.9844 24.9089 74.8984 24.4609 74.8984 23.8984V15.4922Z" fill="#C3C3C3"/>
</svg>
