<svg width="61" height="31" viewBox="0 0 61 31" fill="none" xmlns="http://www.w3.org/2000/svg">
<g clip-path="url(#clip0_2002_8217)">
<path d="M61 2.76909C60.8345 1.41542 59.8299 0.336517 58.5504 0.126465C52.9427 0.126465 8.0817 0.126465 2.47395 0.126465C1.07254 0.356674 0 1.62866 0 3.16161C0 5.62601 0 25.337 0 27.8003C0 29.4977 1.3123 30.8736 2.93224 30.8736C8.4477 30.8736 52.5767 30.8736 58.0922 30.8736C59.5837 30.8736 60.8154 29.7056 61 28.1939C61 23.1091 61 5.31093 61 2.76909Z" fill="#F6C700"/>
<path d="M7.35718 6.30493H12.1979V24.9391H7.35718V6.30493Z" fill="black"/>
<path d="M21.3448 14.8885C20.9289 12.0485 20.6977 10.47 20.6521 10.1549C20.4494 8.63465 20.2564 7.31175 20.0718 6.18298C19.6527 6.18298 17.5617 6.18298 13.7957 6.18298V24.8172H18.036L18.0508 12.5132L19.8352 24.8172H22.8555L24.5476 12.2395L24.5635 24.8172H28.79V6.18298H22.4661L21.3448 14.8885Z" fill="black"/>
<path d="M36.7814 10.0594C36.8345 10.297 36.862 10.836 36.862 11.6783C36.862 12.4007 36.862 18.1804 36.862 18.9028C36.862 20.143 36.7814 20.9025 36.6212 21.1826C36.46 21.4627 36.0314 21.6017 35.3365 21.6017C35.3365 20.3785 35.3365 10.593 35.3365 9.36984C35.8638 9.36984 36.2234 9.42606 36.4143 9.53639C36.6053 9.64778 36.7284 9.82177 36.7814 10.0594ZM38.9679 24.6273C39.5439 24.501 40.0277 24.2782 40.4202 23.961C40.8117 23.6428 41.0864 23.2025 41.2434 22.6392C41.4015 22.0769 41.4949 20.9598 41.4949 19.289C41.4949 18.6355 41.4949 13.4001 41.4949 12.7455C41.4949 10.9824 41.4259 9.80055 41.3187 9.2001C41.2105 8.59858 40.9421 8.05224 40.5125 7.56211C40.0818 7.07199 39.4537 6.71978 38.6284 6.50549C37.802 6.29119 36.4547 6.18298 34.1112 6.18298C33.8704 6.18298 32.6674 6.18298 30.5 6.18298V24.8172H36.3645C37.716 24.7747 38.5838 24.7121 38.9679 24.6273Z" fill="black"/>
<path d="M49.3051 21.8424C49.216 22.079 48.8256 22.1989 48.5307 22.1989C48.2421 22.1989 48.0501 22.0843 47.9525 21.8541C47.8549 21.625 47.8071 21.102 47.8071 20.283C47.8071 19.7907 47.8071 15.8506 47.8071 15.3584C47.8071 14.5097 47.8496 13.9803 47.9355 13.7692C48.0204 13.5602 48.2071 13.4541 48.4956 13.4541C48.7906 13.4541 49.1863 13.574 49.2881 13.8148C49.3889 14.0557 49.4398 14.5702 49.4398 15.3584C49.4398 15.6767 49.4398 17.268 49.4398 20.1334C49.4091 21.1147 49.3645 21.6844 49.3051 21.8424ZM43.1436 24.6548H47.5016C47.683 23.943 47.7827 23.5473 47.8029 23.4677C48.1975 23.9451 48.6314 24.3037 49.1078 24.5413C49.582 24.78 50.2917 24.8988 50.8412 24.8988C51.6061 24.8988 52.266 24.6983 52.8229 24.2962C53.3788 23.8952 53.7332 23.42 53.8838 22.8736C54.0344 22.3262 54.1098 21.4945 54.1098 20.3763C54.1098 19.8533 54.1098 15.6714 54.1098 15.1484C54.1098 14.0238 54.0843 13.2897 54.0344 12.9449C53.9846 12.6001 53.8361 12.249 53.5889 11.8894C53.3417 11.5297 52.9821 11.2507 52.511 11.0513C52.04 10.8518 51.4841 10.7521 50.8433 10.7521C50.2864 10.7521 49.5735 10.8635 49.0982 11.0831C48.624 11.3027 48.1933 11.6358 47.8071 12.0824C47.8071 11.6782 47.8071 9.65835 47.8071 6.02063H43.1436V24.6548Z" fill="black"/>
</g>
<defs>
<clipPath id="clip0_2002_8217">
<rect width="61" height="30.7472" fill="white" transform="translate(0 0.126465)"/>
</clipPath>
</defs>
</svg>
