<svg width="24" height="24" viewBox="0 0 24 24" fill="none" xmlns="http://www.w3.org/2000/svg">
<g clip-path="url(#clip0_2002_8010)">
<path d="M4.83333 15H18.1667C18.625 15 19 14.55 19 14C19 13.45 18.625 13 18.1667 13H4.83333C4.375 13 4 13.45 4 14C4 14.55 4.375 15 4.83333 15ZM4 9C4 9.55 4.375 10 4.83333 10H18.1667C18.625 10 19 9.55 19 9C19 8.45 18.625 8 18.1667 8H4.83333C4.375 8 4 8.45 4 9Z" fill="#C3C3C3"/>
</g>
<defs>
<clipPath id="clip0_2002_8010">
<rect width="24" height="24" fill="white"/>
</clipPath>
</defs>
</svg>
