<svg width="24" height="24" viewBox="0 0 24 24" fill="none" xmlns="http://www.w3.org/2000/svg">
<path d="M19.6501 9.04L14.8101 8.62L12.9201 4.17C12.5801 3.36 11.4201 3.36 11.0801 4.17L9.19007 8.63L4.36007 9.04C3.48007 9.11 3.12007 10.21 3.79007 10.79L7.46007 13.97L6.36007 18.69C6.16007 19.55 7.09007 20.23 7.85007 19.77L12.0001 17.27L16.1501 19.78C16.9101 20.24 17.8401 19.56 17.6401 18.7L16.5401 13.97L20.2101 10.79C20.8801 10.21 20.5301 9.11 19.6501 9.04ZM12.0001 15.4L8.24007 17.67L9.24007 13.39L5.92007 10.51L10.3001 10.13L12.0001 6.1L13.7101 10.14L18.0901 10.52L14.7701 13.4L15.7701 17.68L12.0001 15.4Z" fill="#C3C3C3"/>
</svg>
