<svg width="205" height="42" viewBox="0 0 205 42" fill="none" xmlns="http://www.w3.org/2000/svg">
<g filter="url(#filter0_i_2002_3571)">
<rect x="0.899902" width="204" height="42" rx="10" fill="#A3A3A3" fill-opacity="0.05"/>
<path d="M25.8999 15.82V26.18C25.8999 26.97 26.7699 27.45 27.4399 27.02L35.5799 21.84C36.1999 21.45 36.1999 20.55 35.5799 20.15L27.4399 14.98C26.7699 14.55 25.8999 15.03 25.8999 15.82Z" fill="#C3C3C3"/>
<path d="M58.4233 14.625V26H56.939V14.625H58.4233ZM62.0796 14.625V15.8594H53.2905V14.625H62.0796ZM64.3999 18.875V26H62.9546V17.5469H64.3608L64.3999 18.875ZM67.0405 17.5L67.0327 18.8438C66.9129 18.8177 66.7983 18.8021 66.689 18.7969C66.5848 18.7865 66.465 18.7812 66.3296 18.7812C65.9963 18.7812 65.702 18.8333 65.4468 18.9375C65.1916 19.0417 64.9754 19.1875 64.7983 19.375C64.6213 19.5625 64.4806 19.7865 64.3765 20.0469C64.2775 20.3021 64.2124 20.5833 64.1812 20.8906L63.7749 21.125C63.7749 20.6146 63.8244 20.1354 63.9233 19.6875C64.0275 19.2396 64.1864 18.8438 64.3999 18.5C64.6134 18.151 64.8843 17.8802 65.2124 17.6875C65.5457 17.4896 65.9416 17.3906 66.3999 17.3906C66.5041 17.3906 66.6239 17.4036 66.7593 17.4297C66.8947 17.4505 66.9884 17.474 67.0405 17.5ZM73.0483 24.5547V20.2031C73.0483 19.8698 72.9806 19.5807 72.8452 19.3359C72.715 19.0859 72.5171 18.8932 72.2515 18.7578C71.9858 18.6224 71.6577 18.5547 71.2671 18.5547C70.9025 18.5547 70.5822 18.6172 70.3062 18.7422C70.0353 18.8672 69.8218 19.0312 69.6655 19.2344C69.5145 19.4375 69.439 19.6562 69.439 19.8906H67.9937C67.9937 19.5885 68.0718 19.2891 68.228 18.9922C68.3843 18.6953 68.6082 18.4271 68.8999 18.1875C69.1968 17.9427 69.5509 17.75 69.9624 17.6094C70.3791 17.4635 70.8426 17.3906 71.353 17.3906C71.9676 17.3906 72.5093 17.4948 72.978 17.7031C73.452 17.9115 73.8218 18.2266 74.0874 18.6484C74.3582 19.0651 74.4937 19.5885 74.4937 20.2188V24.1562C74.4937 24.4375 74.5171 24.737 74.564 25.0547C74.616 25.3724 74.6916 25.6458 74.7905 25.875V26H73.2827C73.2098 25.8333 73.1525 25.612 73.1108 25.3359C73.0692 25.0547 73.0483 24.7943 73.0483 24.5547ZM73.2983 20.875L73.314 21.8906H71.853C71.4416 21.8906 71.0744 21.9245 70.7515 21.9922C70.4285 22.0547 70.1577 22.151 69.939 22.2812C69.7202 22.4115 69.5535 22.5755 69.439 22.7734C69.3244 22.9661 69.2671 23.1927 69.2671 23.4531C69.2671 23.7188 69.327 23.9609 69.4468 24.1797C69.5666 24.3984 69.7463 24.5729 69.9858 24.7031C70.2306 24.8281 70.5301 24.8906 70.8843 24.8906C71.327 24.8906 71.7176 24.7969 72.0562 24.6094C72.3947 24.4219 72.6629 24.1927 72.8608 23.9219C73.064 23.651 73.1733 23.388 73.189 23.1328L73.8062 23.8281C73.7697 24.0469 73.6707 24.2891 73.5093 24.5547C73.3478 24.8203 73.1317 25.0755 72.8608 25.3203C72.5952 25.5599 72.2775 25.7604 71.9077 25.9219C71.5431 26.0781 71.1317 26.1562 70.6733 26.1562C70.1004 26.1562 69.5978 26.0443 69.1655 25.8203C68.7384 25.5964 68.4051 25.2969 68.1655 24.9219C67.9312 24.5417 67.814 24.1172 67.814 23.6484C67.814 23.1953 67.9025 22.7969 68.0796 22.4531C68.2567 22.1042 68.5119 21.8151 68.8452 21.5859C69.1785 21.3516 69.5796 21.1745 70.0483 21.0547C70.5171 20.9349 71.0405 20.875 71.6187 20.875H73.2983ZM78.3374 17.5469V26H76.8843V17.5469H78.3374ZM76.7749 15.3047C76.7749 15.0703 76.8452 14.8724 76.9858 14.7109C77.1317 14.5495 77.3452 14.4688 77.6265 14.4688C77.9025 14.4688 78.1134 14.5495 78.2593 14.7109C78.4103 14.8724 78.4858 15.0703 78.4858 15.3047C78.4858 15.5286 78.4103 15.7214 78.2593 15.8828C78.1134 16.0391 77.9025 16.1172 77.6265 16.1172C77.3452 16.1172 77.1317 16.0391 76.9858 15.8828C76.8452 15.7214 76.7749 15.5286 76.7749 15.3047ZM82.228 14V26H80.7749V14H82.228ZM88.0562 26.1562C87.4676 26.1562 86.9338 26.0573 86.4546 25.8594C85.9806 25.6562 85.5718 25.3724 85.228 25.0078C84.8895 24.6432 84.6291 24.2109 84.4468 23.7109C84.2645 23.2109 84.1733 22.6641 84.1733 22.0703V21.7422C84.1733 21.0547 84.2749 20.4427 84.478 19.9062C84.6812 19.3646 84.9572 18.9062 85.3062 18.5312C85.6551 18.1562 86.0509 17.8724 86.4937 17.6797C86.9364 17.487 87.3947 17.3906 87.8687 17.3906C88.4728 17.3906 88.9937 17.4948 89.4312 17.7031C89.8739 17.9115 90.2358 18.2031 90.5171 18.5781C90.7983 18.9479 91.0067 19.3854 91.1421 19.8906C91.2775 20.3906 91.3452 20.9375 91.3452 21.5312V22.1797H85.0327V21H89.8999V20.8906C89.8791 20.5156 89.8009 20.151 89.6655 19.7969C89.5353 19.4427 89.327 19.151 89.0405 18.9219C88.7541 18.6927 88.3634 18.5781 87.8687 18.5781C87.5405 18.5781 87.2384 18.6484 86.9624 18.7891C86.6864 18.9245 86.4494 19.1276 86.2515 19.3984C86.0535 19.6693 85.8999 20 85.7905 20.3906C85.6812 20.7812 85.6265 21.2318 85.6265 21.7422V22.0703C85.6265 22.4714 85.6812 22.849 85.7905 23.2031C85.9051 23.5521 86.0692 23.8594 86.2827 24.125C86.5015 24.3906 86.7645 24.599 87.0718 24.75C87.3843 24.901 87.7384 24.9766 88.1343 24.9766C88.6447 24.9766 89.077 24.8724 89.4312 24.6641C89.7853 24.4557 90.0952 24.1771 90.3608 23.8281L91.2358 24.5234C91.0535 24.7995 90.8218 25.0625 90.5405 25.3125C90.2593 25.5625 89.9129 25.7656 89.5015 25.9219C89.0952 26.0781 88.6134 26.1562 88.0562 26.1562ZM94.478 18.875V26H93.0327V17.5469H94.439L94.478 18.875ZM97.1187 17.5L97.1108 18.8438C96.991 18.8177 96.8765 18.8021 96.7671 18.7969C96.6629 18.7865 96.5431 18.7812 96.4077 18.7812C96.0744 18.7812 95.7801 18.8333 95.5249 18.9375C95.2697 19.0417 95.0535 19.1875 94.8765 19.375C94.6994 19.5625 94.5588 19.7865 94.4546 20.0469C94.3556 20.3021 94.2905 20.5833 94.2593 20.8906L93.853 21.125C93.853 20.6146 93.9025 20.1354 94.0015 19.6875C94.1056 19.2396 94.2645 18.8438 94.478 18.5C94.6916 18.151 94.9624 17.8802 95.2905 17.6875C95.6239 17.4896 96.0197 17.3906 96.478 17.3906C96.5822 17.3906 96.702 17.4036 96.8374 17.4297C96.9728 17.4505 97.0666 17.474 97.1187 17.5Z" fill="#C3C3C3"/>
</g>
<defs>
<filter id="filter0_i_2002_3571" x="0.899902" y="0" width="204" height="43" filterUnits="userSpaceOnUse" color-interpolation-filters="sRGB">
<feFlood flood-opacity="0" result="BackgroundImageFix"/>
<feBlend mode="normal" in="SourceGraphic" in2="BackgroundImageFix" result="shape"/>
<feColorMatrix in="SourceAlpha" type="matrix" values="0 0 0 0 0 0 0 0 0 0 0 0 0 0 0 0 0 0 127 0" result="hardAlpha"/>
<feOffset dy="1"/>
<feGaussianBlur stdDeviation="1"/>
<feComposite in2="hardAlpha" operator="arithmetic" k2="-1" k3="1"/>
<feColorMatrix type="matrix" values="0 0 0 0 1 0 0 0 0 1 0 0 0 0 1 0 0 0 0.08 0"/>
<feBlend mode="normal" in2="shape" result="effect1_innerShadow_2002_3571"/>
</filter>
</defs>
</svg>
