<svg width="102" height="42" viewBox="0 0 102 42" fill="none" xmlns="http://www.w3.org/2000/svg">
<rect x="0.5" width="101" height="42" rx="21" fill="#A3A3A3" fill-opacity="0.15"/>
<path d="M25.5 15.82V26.18C25.5 26.97 26.37 27.45 27.04 27.02L35.18 21.84C35.8 21.45 35.8 20.55 35.18 20.15L27.04 14.98C26.37 14.55 25.5 15.03 25.5 15.82Z" fill="#C3C3C3"/>
<path d="M60.8984 24.8125V26H53.4531V24.9609L57.1797 20.8125C57.638 20.3021 57.9922 19.8698 58.2422 19.5156C58.4974 19.1562 58.6745 18.8359 58.7734 18.5547C58.8776 18.2682 58.9297 17.9766 58.9297 17.6797C58.9297 17.3047 58.8516 16.9661 58.6953 16.6641C58.5443 16.3568 58.3203 16.112 58.0234 15.9297C57.7266 15.7474 57.3672 15.6562 56.9453 15.6562C56.4401 15.6562 56.0182 15.7552 55.6797 15.9531C55.3464 16.1458 55.0964 16.4167 54.9297 16.7656C54.763 17.1146 54.6797 17.5156 54.6797 17.9688H53.2344C53.2344 17.3281 53.375 16.7422 53.6562 16.2109C53.9375 15.6797 54.3542 15.2578 54.9062 14.9453C55.4583 14.6276 56.138 14.4688 56.9453 14.4688C57.6641 14.4688 58.2786 14.5964 58.7891 14.8516C59.2995 15.1016 59.6901 15.4557 59.9609 15.9141C60.237 16.3672 60.375 16.8984 60.375 17.5078C60.375 17.8411 60.3177 18.1797 60.2031 18.5234C60.0938 18.862 59.9401 19.2005 59.7422 19.5391C59.5495 19.8776 59.3229 20.2109 59.0625 20.5391C58.8073 20.8672 58.5339 21.1901 58.2422 21.5078L55.1953 24.8125H60.8984ZM62.5391 25.2344C62.5391 24.9896 62.6146 24.7839 62.7656 24.6172C62.9219 24.4453 63.1458 24.3594 63.4375 24.3594C63.7292 24.3594 63.9505 24.4453 64.1016 24.6172C64.2578 24.7839 64.3359 24.9896 64.3359 25.2344C64.3359 25.474 64.2578 25.6771 64.1016 25.8438C63.9505 26.0104 63.7292 26.0938 63.4375 26.0938C63.1458 26.0938 62.9219 26.0104 62.7656 25.8438C62.6146 25.6771 62.5391 25.474 62.5391 25.2344ZM62.5469 18.3359C62.5469 18.0911 62.6224 17.8854 62.7734 17.7188C62.9297 17.5469 63.1536 17.4609 63.4453 17.4609C63.737 17.4609 63.9583 17.5469 64.1094 17.7188C64.2656 17.8854 64.3438 18.0911 64.3438 18.3359C64.3438 18.5755 64.2656 18.7786 64.1094 18.9453C63.9583 19.112 63.737 19.1953 63.4453 19.1953C63.1536 19.1953 62.9297 19.112 62.7734 18.9453C62.6224 18.7786 62.5469 18.5755 62.5469 18.3359ZM68.1484 20.5859L66.9922 20.2891L67.5625 14.625H73.3984V15.9609H68.7891L68.4453 19.0547C68.6536 18.9349 68.9167 18.8229 69.2344 18.7188C69.5573 18.6146 69.9271 18.5625 70.3438 18.5625C70.8698 18.5625 71.3411 18.6536 71.7578 18.8359C72.1745 19.013 72.5286 19.2682 72.8203 19.6016C73.1172 19.9349 73.3438 20.3359 73.5 20.8047C73.6562 21.2734 73.7344 21.7969 73.7344 22.375C73.7344 22.9219 73.6589 23.4245 73.5078 23.8828C73.362 24.3411 73.1406 24.7422 72.8438 25.0859C72.5469 25.4245 72.1719 25.6875 71.7188 25.875C71.2708 26.0625 70.7422 26.1562 70.1328 26.1562C69.6745 26.1562 69.2396 26.0938 68.8281 25.9688C68.4219 25.8385 68.0573 25.6432 67.7344 25.3828C67.4167 25.1172 67.1562 24.7891 66.9531 24.3984C66.7552 24.0026 66.6302 23.5391 66.5781 23.0078H67.9531C68.0156 23.4349 68.1406 23.7943 68.3281 24.0859C68.5156 24.3776 68.7604 24.599 69.0625 24.75C69.3698 24.8958 69.7266 24.9688 70.1328 24.9688C70.4766 24.9688 70.7812 24.9089 71.0469 24.7891C71.3125 24.6693 71.5365 24.4974 71.7188 24.2734C71.901 24.0495 72.0391 23.7786 72.1328 23.4609C72.2318 23.1432 72.2812 22.7865 72.2812 22.3906C72.2812 22.0312 72.2318 21.6979 72.1328 21.3906C72.0339 21.0833 71.8854 20.8151 71.6875 20.5859C71.4948 20.3568 71.2578 20.1797 70.9766 20.0547C70.6953 19.9245 70.3724 19.8594 70.0078 19.8594C69.5234 19.8594 69.1562 19.9245 68.9062 20.0547C68.6615 20.1849 68.4089 20.362 68.1484 20.5859ZM82.4609 19.4062V21.1406C82.4609 22.0729 82.3776 22.8594 82.2109 23.5C82.0443 24.1406 81.8047 24.6562 81.4922 25.0469C81.1797 25.4375 80.8021 25.7214 80.3594 25.8984C79.9219 26.0703 79.4271 26.1562 78.875 26.1562C78.4375 26.1562 78.0339 26.1016 77.6641 25.9922C77.2943 25.8828 76.9609 25.7083 76.6641 25.4688C76.3724 25.224 76.1224 24.9062 75.9141 24.5156C75.7057 24.125 75.5469 23.651 75.4375 23.0938C75.3281 22.5365 75.2734 21.8854 75.2734 21.1406V19.4062C75.2734 18.474 75.3568 17.6927 75.5234 17.0625C75.6953 16.4323 75.9375 15.9271 76.25 15.5469C76.5625 15.1615 76.9375 14.8854 77.375 14.7188C77.8177 14.5521 78.3125 14.4688 78.8594 14.4688C79.3021 14.4688 79.7083 14.5234 80.0781 14.6328C80.4531 14.737 80.7865 14.9062 81.0781 15.1406C81.3698 15.3698 81.6172 15.6771 81.8203 16.0625C82.0286 16.4427 82.1875 16.9089 82.2969 17.4609C82.4062 18.013 82.4609 18.6615 82.4609 19.4062ZM81.0078 21.375V19.1641C81.0078 18.6536 80.9766 18.2057 80.9141 17.8203C80.8568 17.4297 80.7708 17.0964 80.6562 16.8203C80.5417 16.5443 80.3958 16.3203 80.2188 16.1484C80.0469 15.9766 79.8464 15.8516 79.6172 15.7734C79.3932 15.6901 79.1406 15.6484 78.8594 15.6484C78.5156 15.6484 78.2109 15.7135 77.9453 15.8438C77.6797 15.9688 77.4557 16.1693 77.2734 16.4453C77.0964 16.7214 76.9609 17.0833 76.8672 17.5312C76.7734 17.9792 76.7266 18.5234 76.7266 19.1641V21.375C76.7266 21.8854 76.7552 22.3359 76.8125 22.7266C76.875 23.1172 76.9661 23.4557 77.0859 23.7422C77.2057 24.0234 77.3516 24.2552 77.5234 24.4375C77.6953 24.6198 77.8932 24.7552 78.1172 24.8438C78.3464 24.9271 78.599 24.9688 78.875 24.9688C79.2292 24.9688 79.5391 24.901 79.8047 24.7656C80.0703 24.6302 80.2917 24.4193 80.4688 24.1328C80.651 23.8411 80.7865 23.4688 80.875 23.0156C80.9635 22.5573 81.0078 22.0104 81.0078 21.375Z" fill="#C3C3C3"/>
</svg>
