<svg width="24" height="24" viewBox="0 0 24 24" fill="none" xmlns="http://www.w3.org/2000/svg">
<path d="M5 12.8889C4.44771 12.8889 4 12.4412 4 11.8889V5.77778C4 5.28889 4.17407 4.87037 4.52222 4.52222C4.87037 4.17407 5.28889 4 5.77778 4H10.1111C10.6634 4 11.1111 4.44772 11.1111 5V11.8889C11.1111 12.4412 10.6634 12.8889 10.1111 12.8889H5ZM12.8889 5C12.8889 4.44772 13.3366 4 13.8889 4H18.2222C18.7111 4 19.1296 4.17407 19.4778 4.52222C19.8259 4.87037 20 5.28889 20 5.77778V8.33333C20 8.88562 19.5523 9.33333 19 9.33333H13.8889C13.3366 9.33333 12.8889 8.88562 12.8889 8.33333V5ZM13.8889 20C13.3366 20 12.8889 19.5523 12.8889 19V12.1111C12.8889 11.5588 13.3366 11.1111 13.8889 11.1111H19C19.5523 11.1111 20 11.5588 20 12.1111V18.2222C20 18.7111 19.8259 19.1296 19.4778 19.4778C19.1296 19.8259 18.7111 20 18.2222 20H13.8889ZM4 15.6667C4 15.1144 4.44772 14.6667 5 14.6667H10.1111C10.6634 14.6667 11.1111 15.1144 11.1111 15.6667V19C11.1111 19.5523 10.6634 20 10.1111 20H5.77778C5.28889 20 4.87037 19.8259 4.52222 19.4778C4.17407 19.1296 4 18.7111 4 18.2222V15.6667ZM5.77778 11.1111H9.33333V5.77778H5.77778V11.1111ZM14.6667 7.55556H18.2222V5.77778H14.6667V7.55556ZM14.6667 12.8889V18.2222H18.2222V12.8889H14.6667ZM5.77778 16.4444V18.2222H9.33333V16.4444H5.77778Z" fill="#C3C3C3"/>
</svg>
