<svg width="24" height="24" viewBox="0 0 24 24" fill="none" xmlns="http://www.w3.org/2000/svg">
<path d="M18.7273 4.63636H17.9091V3.81818C17.9091 3.36818 17.5409 3 17.0909 3C16.6409 3 16.2727 3.36818 16.2727 3.81818V4.63636H8.09091V3.81818C8.09091 3.36818 7.72273 3 7.27273 3C6.82273 3 6.45455 3.36818 6.45455 3.81818V4.63636H5.63636C4.73636 4.63636 4 5.37273 4 6.27273V19.3636C4 20.2636 4.73636 21 5.63636 21H18.7273C19.6273 21 20.3636 20.2636 20.3636 19.3636V6.27273C20.3636 5.37273 19.6273 4.63636 18.7273 4.63636ZM17.9091 19.3636H6.45455C6.00455 19.3636 5.63636 18.9955 5.63636 18.5455V8.72727H18.7273V18.5455C18.7273 18.9955 18.3591 19.3636 17.9091 19.3636Z" fill="#C3C3C3"/>
</svg>
