<svg width="24" height="24" viewBox="0 0 24 24" fill="none" xmlns="http://www.w3.org/2000/svg">
<path d="M5.77778 17H18.2222C18.65 17 19 16.625 19 16.1667C19 15.7083 18.65 15.3333 18.2222 15.3333H5.77778C5.35 15.3333 5 15.7083 5 16.1667C5 16.625 5.35 17 5.77778 17ZM5.77778 12.8333H18.2222C18.65 12.8333 19 12.4583 19 12C19 11.5417 18.65 11.1667 18.2222 11.1667H5.77778C5.35 11.1667 5 11.5417 5 12C5 12.4583 5.35 12.8333 5.77778 12.8333ZM5 7.83333C5 8.29167 5.35 8.66667 5.77778 8.66667H18.2222C18.65 8.66667 19 8.29167 19 7.83333C19 7.375 18.65 7 18.2222 7H5.77778C5.35 7 5 7.375 5 7.83333Z" fill="#C3C3C3"/>
</svg>
