<svg width="24" height="24" viewBox="0 0 24 24" fill="none" xmlns="http://www.w3.org/2000/svg">
<path d="M11.2168 20.94L16.7468 15.4C17.1168 15.03 17.3268 14.52 17.3268 13.99V4C17.3268 2.9 16.4268 2 15.3268 2H6.33681C5.53681 2 4.81681 2.48 4.50681 3.21L1.24681 10.82C0.396814 12.8 1.84681 15 3.99681 15H9.64681L8.69681 19.58C8.59681 20.08 8.74681 20.59 9.10681 20.95C9.69681 21.53 10.6368 21.53 11.2168 20.94ZM21.3368 2C20.2368 2 19.3368 2.9 19.3368 4V12C19.3368 13.1 20.2368 14 21.3368 14C22.4368 14 23.3368 13.1 23.3368 12V4C23.3368 2.9 22.4368 2 21.3368 2Z" fill="#C3C3C3"/>
</svg>
