<svg width="24" height="24" viewBox="0 0 24 24" fill="none" xmlns="http://www.w3.org/2000/svg">
<path d="M5.77778 11.1111C5.28889 11.1111 4.87022 10.9369 4.52178 10.5884C4.17393 10.2406 4 9.82222 4 9.33333V5.77778C4 5.28889 4.17393 4.87022 4.52178 4.52178C4.87022 4.17393 5.28889 4 5.77778 4H9.33333C9.82222 4 10.2409 4.17393 10.5893 4.52178C10.9372 4.87022 11.1111 5.28889 11.1111 5.77778V9.33333C11.1111 9.82222 10.9372 10.2406 10.5893 10.5884C10.2409 10.9369 9.82222 11.1111 9.33333 11.1111H5.77778ZM5.77778 20C5.28889 20 4.87022 19.8261 4.52178 19.4782C4.17393 19.1298 4 18.7111 4 18.2222V14.6667C4 14.1778 4.17393 13.7591 4.52178 13.4107C4.87022 13.0628 5.28889 12.8889 5.77778 12.8889H9.33333C9.82222 12.8889 10.2409 13.0628 10.5893 13.4107C10.9372 13.7591 11.1111 14.1778 11.1111 14.6667V18.2222C11.1111 18.7111 10.9372 19.1298 10.5893 19.4782C10.2409 19.8261 9.82222 20 9.33333 20H5.77778ZM14.6667 11.1111C14.1778 11.1111 13.7594 10.9369 13.4116 10.5884C13.0631 10.2406 12.8889 9.82222 12.8889 9.33333V5.77778C12.8889 5.28889 13.0631 4.87022 13.4116 4.52178C13.7594 4.17393 14.1778 4 14.6667 4H18.2222C18.7111 4 19.1298 4.17393 19.4782 4.52178C19.8261 4.87022 20 5.28889 20 5.77778V9.33333C20 9.82222 19.8261 10.2406 19.4782 10.5884C19.1298 10.9369 18.7111 11.1111 18.2222 11.1111H14.6667ZM14.6667 20C14.1778 20 13.7594 19.8261 13.4116 19.4782C13.0631 19.1298 12.8889 18.7111 12.8889 18.2222V14.6667C12.8889 14.1778 13.0631 13.7591 13.4116 13.4107C13.7594 13.0628 14.1778 12.8889 14.6667 12.8889H18.2222C18.7111 12.8889 19.1298 13.0628 19.4782 13.4107C19.8261 13.7591 20 14.1778 20 14.6667V18.2222C20 18.7111 19.8261 19.1298 19.4782 19.4782C19.1298 19.8261 18.7111 20 18.2222 20H14.6667ZM5.77778 9.33333H9.33333V5.77778H5.77778V9.33333ZM14.6667 9.33333H18.2222V5.77778H14.6667V9.33333ZM14.6667 18.2222H18.2222V14.6667H14.6667V18.2222ZM5.77778 18.2222H9.33333V14.6667H5.77778V18.2222Z" fill="#C3C3C3"/>
</svg>
