<svg width="24" height="24" viewBox="0 0 24 24" fill="none" xmlns="http://www.w3.org/2000/svg">
<path d="M13.12 2.44376L7.58 7.98376C7.21 8.35376 7 8.86376 7 9.39376V19.3838C7 20.4838 7.9 21.3838 9 21.3838H18C18.8 21.3838 19.52 20.9038 19.84 20.1738L23.1 12.5638C23.94 10.5838 22.49 8.38376 20.34 8.38376H14.69L15.64 3.80376C15.74 3.30376 15.59 2.79376 15.23 2.43376C14.64 1.85376 13.7 1.85376 13.12 2.44376ZM3 21.3838C4.1 21.3838 5 20.4838 5 19.3838V11.3838C5 10.2838 4.1 9.38376 3 9.38376C1.9 9.38376 1 10.2838 1 11.3838V19.3838C1 20.4838 1.9 21.3838 3 21.3838Z" fill="#C3C3C3"/>
</svg>
