<svg width="24" height="24" viewBox="0 0 24 24" fill="none" xmlns="http://www.w3.org/2000/svg">
<path d="M5.8 20.1999C5.305 20.1999 4.88125 20.0237 4.52875 19.6712C4.17625 19.3187 4 18.8949 4 18.3999V14.7999C4 14.3049 4.17625 13.8812 4.52875 13.5287C4.88125 13.1762 5.305 12.9999 5.8 12.9999H9.4C9.895 12.9999 10.3188 13.1762 10.6713 13.5287C11.0238 13.8812 11.2 14.3049 11.2 14.7999V18.3999C11.2 18.8949 11.0238 19.3187 10.6713 19.6712C10.3188 20.0237 9.895 20.1999 9.4 20.1999H5.8ZM5.8 18.3999H9.4V14.7999H5.8V18.3999ZM13.8 17.6C13.545 17.6 13.3312 17.5137 13.1587 17.3412C12.9862 17.1687 12.9 16.955 12.9 16.7C12.9 16.445 12.9862 16.2312 13.1587 16.0587C13.3312 15.8862 13.545 15.8 13.8 15.8H20.1C20.355 15.8 20.5687 15.8862 20.7412 16.0587C20.9137 16.2312 21 16.445 21 16.7C21 16.955 20.9137 17.1687 20.7412 17.3412C20.5687 17.5137 20.355 17.6 20.1 17.6H13.8ZM5.8 11.1999C5.305 11.1999 4.88125 11.0237 4.52875 10.6712C4.17625 10.3187 4 9.89495 4 9.39995V5.79995C4 5.30495 4.17625 4.8812 4.52875 4.5287C4.88125 4.1762 5.305 3.99995 5.8 3.99995H9.4C9.895 3.99995 10.3188 4.1762 10.6713 4.5287C11.0238 4.8812 11.2 5.30495 11.2 5.79995V9.39995C11.2 9.89495 11.0238 10.3187 10.6713 10.6712C10.3188 11.0237 9.895 11.1999 9.4 11.1999H5.8ZM5.8 9.39995H9.4V5.79995H5.8V9.39995ZM13.8 8.59995C13.545 8.59995 13.3312 8.5137 13.1587 8.3412C12.9862 8.1687 12.9 7.95495 12.9 7.69995C12.9 7.44495 12.9862 7.2312 13.1587 7.0587C13.3312 6.8862 13.545 6.79995 13.8 6.79995H20.1C20.355 6.79995 20.5687 6.8862 20.7412 7.0587C20.9137 7.2312 21 7.44495 21 7.69995C21 7.95495 20.9137 8.1687 20.7412 8.3412C20.5687 8.5137 20.355 8.59995 20.1 8.59995H13.8Z" fill="#C3C3C3"/>
</svg>
