<svg width="24" height="24" viewBox="0 0 24 24" fill="none" xmlns="http://www.w3.org/2000/svg">
<path d="M18.25 4H5.58333C4.7125 4 4 4.7125 4 5.58333V19.1091C4 19.3763 4.32314 19.5102 4.51213 19.3212L7.0788 16.7545C7.13506 16.6983 7.21137 16.6667 7.29093 16.6667H18.25C19.1208 16.6667 19.8333 15.9542 19.8333 15.0833V5.58333C19.8333 4.7125 19.1208 4 18.25 4ZM7.46667 13.5C7.30098 13.5 7.16667 13.3657 7.16667 13.2V11.6688C7.16667 11.5893 7.19827 11.513 7.25453 11.4567L12.6133 6.09792C12.7717 5.93958 13.0171 5.93958 13.1754 6.09792L14.5767 7.49917C14.735 7.6575 14.735 7.90292 14.5767 8.06125L9.2099 13.4124C9.15366 13.4685 9.07749 13.5 8.99807 13.5H7.46667ZM15.875 13.5H11.4534C11.1862 13.5 11.0523 13.1769 11.2413 12.9879L12.2246 12.0045C12.2809 11.9483 12.3572 11.9167 12.4368 11.9167H15.875C16.3104 11.9167 16.6667 12.2729 16.6667 12.7083C16.6667 13.1437 16.3104 13.5 15.875 13.5Z" fill="#C3C3C3"/>
</svg>
