<svg width="24" height="24" viewBox="0 0 24 24" fill="none" xmlns="http://www.w3.org/2000/svg">
<g clip-path="url(#clip0_2030_3311)">
<path d="M17.0483 15.3092C16.4378 15.3092 15.8917 15.5502 15.474 15.9277L9.74708 12.5944C9.78724 12.4096 9.81937 12.2249 9.81937 12.0321C9.81937 11.8394 9.78724 11.6546 9.74708 11.4699L15.4097 8.16867C15.8435 8.57028 16.4137 8.81928 17.0483 8.81928C18.3816 8.81928 19.4579 7.74297 19.4579 6.40964C19.4579 5.07631 18.3816 4 17.0483 4C15.715 4 14.6386 5.07631 14.6386 6.40964C14.6386 6.60241 14.6708 6.78715 14.7109 6.97189L9.04828 10.2731C8.61455 9.87149 8.04427 9.62249 7.40973 9.62249C6.0764 9.62249 5.00009 10.6988 5.00009 12.0321C5.00009 13.3655 6.0764 14.4418 7.40973 14.4418C8.04427 14.4418 8.61455 14.1928 9.04828 13.7912L14.7672 17.1325C14.727 17.3012 14.7029 17.4779 14.7029 17.6546C14.7029 18.9478 15.7551 20 17.0483 20C18.3415 20 19.3937 18.9478 19.3937 17.6546C19.3937 16.3614 18.3415 15.3092 17.0483 15.3092Z" fill="#C3C3C3"/>
</g>
<defs>
<clipPath id="clip0_2030_3311">
<rect width="24" height="24" fill="white"/>
</clipPath>
</defs>
</svg>
