<svg width="24" height="24" viewBox="0 0 24 24" fill="none" xmlns="http://www.w3.org/2000/svg">
<path d="M16.4325 6.85L17.8725 8.29L12.9925 13.17L9.7025 9.88C9.3125 9.49 8.6825 9.49 8.2925 9.88L2.2925 15.89C1.9025 16.28 1.9025 16.91 2.2925 17.3C2.6825 17.69 3.3125 17.69 3.7025 17.3L8.9925 12L12.2825 15.29C12.6725 15.68 13.3025 15.68 13.6925 15.29L19.2825 9.71L20.7225 11.15C21.0325 11.46 21.5725 11.24 21.5725 10.8V6.5C21.5825 6.22 21.3625 6 21.0825 6H16.7925C16.3425 6 16.1225 6.54 16.4325 6.85Z" fill="#C3C3C3"/>
</svg>
