<svg width="24" height="24" viewBox="0 0 24 24" fill="none" xmlns="http://www.w3.org/2000/svg">
<path d="M12 5.99998C7.90909 5.99998 4.41545 8.54453 3 12.1363C4.41545 15.7282 7.90909 18.2727 12 18.2727C16.0909 18.2727 19.5845 15.7282 21 12.1363C19.5845 8.54453 16.0909 5.99998 12 5.99998ZM12 16.2273C9.74182 16.2273 7.90909 14.3945 7.90909 12.1363C7.90909 9.87817 9.74182 8.04544 12 8.04544C14.2582 8.04544 16.0909 9.87817 16.0909 12.1363C16.0909 14.3945 14.2582 16.2273 12 16.2273ZM12 9.6818C10.6418 9.6818 9.54545 10.7782 9.54545 12.1363C9.54545 13.4945 10.6418 14.5909 12 14.5909C13.3582 14.5909 14.4545 13.4945 14.4545 12.1363C14.4545 10.7782 13.3582 9.6818 12 9.6818Z" fill="#C3C3C3"/>
</svg>
